<svg width="19" height="20" viewBox="0 0 19 20" fill="none" xmlns="http://www.w3.org/2000/svg">
<path d="M4.53166 12.1377L3.16498 18.0557C3.12266 18.2349 3.13536 18.4227 3.20143 18.5945C3.2675 18.7664 3.38387 18.9143 3.53533 19.0191C3.68679 19.1238 3.86631 19.1804 4.05043 19.1814C4.23456 19.1825 4.41474 19.1281 4.56743 19.0252L9.56177 15.6956L14.5561 19.0252C14.7123 19.1289 14.8966 19.1823 15.0841 19.1782C15.2716 19.1741 15.4533 19.1127 15.6049 19.0022C15.7564 18.8917 15.8705 18.7375 15.9317 18.5602C15.993 18.383 15.9985 18.1912 15.9476 18.0107L14.2699 12.1404L18.4305 8.39628C18.5638 8.27629 18.6589 8.11988 18.7042 7.94638C18.7495 7.77289 18.743 7.58992 18.6854 7.4201C18.6278 7.25029 18.5217 7.10107 18.3802 6.99091C18.2388 6.88075 18.0681 6.81448 17.8893 6.80029L12.6602 6.38386L10.3974 1.37485C10.3252 1.21356 10.2079 1.0766 10.0597 0.980493C9.91138 0.88439 9.73846 0.833252 9.56177 0.833252C9.38508 0.833252 9.21216 0.88439 9.06389 0.980493C8.91561 1.0766 8.79832 1.21356 8.72617 1.37485L6.46335 6.38386L1.2342 6.79937C1.05851 6.81329 0.890548 6.87753 0.75041 6.98441C0.610273 7.09128 0.503893 7.23627 0.443998 7.40202C0.384102 7.56777 0.373228 7.74727 0.412676 7.91904C0.452123 8.09081 0.540222 8.24758 0.666433 8.37059L4.53166 12.1377ZM7.14853 8.16972C7.31225 8.15682 7.46948 8.10012 7.60375 8.00555C7.73802 7.91098 7.84438 7.78203 7.91167 7.63222L9.56177 3.98071L11.2119 7.63222C11.2792 7.78203 11.3855 7.91098 11.5198 8.00555C11.6541 8.10012 11.8113 8.15682 11.975 8.16972L15.6183 8.45865L12.618 11.159C12.3575 11.3938 12.2539 11.7552 12.3492 12.0927L13.4985 16.1148L10.0718 13.83C9.92134 13.729 9.74429 13.6751 9.56315 13.6751C9.382 13.6751 9.20495 13.729 9.05454 13.83L5.47366 16.2175L6.43675 12.0478C6.47207 11.8944 6.46733 11.7346 6.42299 11.5836C6.37866 11.4326 6.29621 11.2955 6.1836 11.1856L3.39704 8.46874L7.14853 8.16972Z" fill="#F3CD03"/>
</svg>
