<svg width="49" height="38" viewBox="0 0 49 38" fill="none" xmlns="http://www.w3.org/2000/svg">
<path fill-rule="evenodd" clip-rule="evenodd" d="M46.4167 37.6666C46.4167 37.6666 49.5001 37.6666 49.5001 34.5555C49.5001 31.4444 46.4167 22.111 34.0834 22.111C21.7501 22.111 18.6667 31.4444 18.6667 34.5555C18.6667 37.6666 21.7501 37.6666 21.7501 37.6666H46.4167ZM21.8179 34.5555H46.3489C46.3634 34.5538 46.3777 34.5517 46.3921 34.5493L46.4167 34.543C46.4106 33.7217 45.9018 31.3386 44.0734 29.1919C42.3714 27.179 39.3806 25.2221 34.0834 25.2221C28.7893 25.2221 25.7985 27.1821 24.0934 29.1919C22.265 31.3386 21.7532 33.7248 21.7501 34.543C21.7726 34.5474 21.7953 34.5516 21.8179 34.5555ZM34.0834 15.8888C35.7189 15.8888 37.2874 15.2333 38.4439 14.0664C39.6004 12.8995 40.2501 11.3168 40.2501 9.66658C40.2501 8.01635 39.6004 6.4337 38.4439 5.26681C37.2874 4.09992 35.7189 3.44436 34.0834 3.44436C32.4479 3.44436 30.8794 4.09992 29.7229 5.26681C28.5664 6.4337 27.9167 8.01635 27.9167 9.66658C27.9167 11.3168 28.5664 12.8995 29.7229 14.0664C30.8794 15.2333 32.4479 15.8888 34.0834 15.8888ZM43.3334 9.66658C43.3334 10.8923 43.0942 12.1059 42.6293 13.2383C42.1644 14.3707 41.4831 15.3996 40.6242 16.2662C39.7652 17.1329 38.7455 17.8204 37.6232 18.2895C36.501 18.7585 35.2981 18.9999 34.0834 18.9999C32.8687 18.9999 31.6659 18.7585 30.5436 18.2895C29.4213 17.8204 28.4016 17.1329 27.5427 16.2662C26.6837 15.3996 26.0024 14.3707 25.5375 13.2383C25.0727 12.1059 24.8334 10.8923 24.8334 9.66658C24.8334 7.19123 25.808 4.81726 27.5427 3.06692C29.2774 1.31658 31.6302 0.333252 34.0834 0.333252C36.5367 0.333252 38.8894 1.31658 40.6242 3.06692C42.3589 4.81726 43.3334 7.19123 43.3334 9.66658ZM21.5527 22.9821C20.3194 22.5903 19.048 22.3326 17.7602 22.2137C17.0367 22.1443 16.3102 22.11 15.5834 22.111C3.25008 22.111 0.166748 31.4444 0.166748 34.5555C0.166748 36.6306 1.1935 37.6666 3.25008 37.6666H16.2494C15.7923 36.6953 15.5644 35.6305 15.5834 34.5555C15.5834 31.4132 16.7458 28.2026 18.9442 25.5208C19.6935 24.6061 20.5661 23.7506 21.5527 22.9821ZM15.3367 25.2221C10.1937 25.2844 7.27383 27.2133 5.59341 29.1919C3.75266 31.351 3.25008 33.7435 3.25008 34.5555H12.5001C12.5001 31.3044 13.496 28.0657 15.3367 25.2221ZM4.79175 11.2221C4.79175 8.74679 5.7663 6.37282 7.50101 4.62248C9.23572 2.87214 11.5885 1.88881 14.0417 1.88881C16.495 1.88881 18.8478 2.87214 20.5825 4.62248C22.3172 6.37282 23.2917 8.74679 23.2917 11.2221C23.2917 13.6975 22.3172 16.0715 20.5825 17.8218C18.8478 19.5721 16.495 20.5555 14.0417 20.5555C11.5885 20.5555 9.23572 19.5721 7.50101 17.8218C5.7663 16.0715 4.79175 13.6975 4.79175 11.2221ZM14.0417 4.99992C12.4062 4.99992 10.8377 5.65547 9.68126 6.82236C8.52478 7.98926 7.87508 9.5719 7.87508 11.2221C7.87508 12.8724 8.52478 14.455 9.68126 15.6219C10.8377 16.7888 12.4062 17.4444 14.0417 17.4444C15.6772 17.4444 17.2458 16.7888 18.4022 15.6219C19.5587 14.455 20.2084 12.8724 20.2084 11.2221C20.2084 9.5719 19.5587 7.98926 18.4022 6.82236C17.2458 5.65547 15.6772 4.99992 14.0417 4.99992Z" fill="white"/>
</svg>
