<svg width="48" height="38" viewBox="0 0 48 38" fill="none" xmlns="http://www.w3.org/2000/svg">
<path fill-rule="evenodd" clip-rule="evenodd" d="M45.9167 37.6666C45.9167 37.6666 49.0001 37.6666 49.0001 34.5555C49.0001 31.4444 45.9167 22.111 33.5834 22.111C21.2501 22.111 18.1667 31.4444 18.1667 34.5555C18.1667 37.6666 21.2501 37.6666 21.2501 37.6666H45.9167ZM21.3179 34.5555H45.8489C45.8634 34.5538 45.8777 34.5517 45.8921 34.5493L45.9167 34.543C45.9106 33.7217 45.4018 31.3386 43.5734 29.1919C41.8714 27.179 38.8806 25.2221 33.5834 25.2221C28.2893 25.2221 25.2985 27.1821 23.5934 29.1919C21.765 31.3386 21.2532 33.7248 21.2501 34.543C21.2726 34.5474 21.2953 34.5516 21.3179 34.5555V34.5555ZM33.5834 15.8888C35.2189 15.8888 36.7874 15.2333 37.9439 14.0664C39.1004 12.8995 39.7501 11.3168 39.7501 9.66658C39.7501 8.01635 39.1004 6.4337 37.9439 5.26681C36.7874 4.09992 35.2189 3.44436 33.5834 3.44436C31.9479 3.44436 30.3794 4.09992 29.2229 5.26681C28.0664 6.4337 27.4167 8.01635 27.4167 9.66658C27.4167 11.3168 28.0664 12.8995 29.2229 14.0664C30.3794 15.2333 31.9479 15.8888 33.5834 15.8888ZM42.8334 9.66658C42.8334 10.8923 42.5942 12.1059 42.1293 13.2383C41.6644 14.3707 40.9831 15.3996 40.1242 16.2662C39.2652 17.1329 38.2455 17.8204 37.1232 18.2895C36.001 18.7585 34.7981 18.9999 33.5834 18.9999C32.3687 18.9999 31.1659 18.7585 30.0436 18.2895C28.9213 17.8204 27.9016 17.1329 27.0427 16.2662C26.1837 15.3996 25.5024 14.3707 25.0375 13.2383C24.5727 12.1059 24.3334 10.8923 24.3334 9.66658C24.3334 7.19123 25.308 4.81726 27.0427 3.06692C28.7774 1.31658 31.1302 0.333252 33.5834 0.333252C36.0367 0.333252 38.3894 1.31658 40.1242 3.06692C41.8589 4.81726 42.8334 7.19123 42.8334 9.66658V9.66658ZM21.0527 22.9821C19.8194 22.5903 18.548 22.3326 17.2602 22.2137C16.5367 22.1443 15.8102 22.11 15.0834 22.111C2.75008 22.111 -0.333252 31.4444 -0.333252 34.5555C-0.333252 36.6306 0.693498 37.6666 2.75008 37.6666H15.7494C15.2923 36.6953 15.0644 35.6305 15.0834 34.5555C15.0834 31.4133 16.2458 28.2026 18.4442 25.5208C19.1935 24.6061 20.0661 23.7506 21.0527 22.9821ZM14.8367 25.2221C9.69375 25.2844 6.77383 27.2133 5.09341 29.1919C3.25266 31.351 2.75008 33.7435 2.75008 34.5555H12.0001C12.0001 31.3044 12.996 28.0657 14.8367 25.2221ZM4.29175 11.2221C4.29175 8.74679 5.2663 6.37282 7.00101 4.62248C8.73572 2.87214 11.0885 1.88881 13.5417 1.88881C15.995 1.88881 18.3478 2.87214 20.0825 4.62248C21.8172 6.37282 22.7917 8.74679 22.7917 11.2221C22.7917 13.6975 21.8172 16.0715 20.0825 17.8218C18.3478 19.5721 15.995 20.5555 13.5417 20.5555C11.0885 20.5555 8.73572 19.5721 7.00101 17.8218C5.2663 16.0715 4.29175 13.6975 4.29175 11.2221V11.2221ZM13.5417 4.99992C11.9062 4.99992 10.3377 5.65547 9.18126 6.82236C8.02478 7.98926 7.37508 9.5719 7.37508 11.2221C7.37508 12.8724 8.02478 14.455 9.18126 15.6219C10.3377 16.7888 11.9062 17.4444 13.5417 17.4444C15.1772 17.4444 16.7458 16.7888 17.9022 15.6219C19.0587 14.455 19.7084 12.8724 19.7084 11.2221C19.7084 9.5719 19.0587 7.98926 17.9022 6.82236C16.7458 5.65547 15.1772 4.99992 13.5417 4.99992Z" fill="#23A6F0"/>
</svg>
